<svg width="21" height="20" viewBox="0 0 21 20" fill="none" xmlns="http://www.w3.org/2000/svg">
<path d="M9.74666 1.30447C9.63226 1.19553 9.47749 1.13281 9.31151 1.13281H0.615395C0.275574 1.13281 0 1.39511 0 1.71875V18.2422C0 18.5658 0.275574 18.8281 0.615395 18.8281H12.9624C13.3014 18.8281 13.5767 18.5669 13.5776 18.244C13.5776 18.2393 13.6186 5.23895 13.6186 5.23437C13.6186 5.0795 13.5555 4.93866 13.4525 4.83383C13.4419 4.82315 9.75755 1.3147 9.74666 1.30447ZM9.9269 3.13339L11.5179 4.64844H9.9269V3.13339ZM12.3489 17.6562H1.23063V2.30469H8.69627V5.23437C8.69627 5.55801 8.97169 5.82031 9.31151 5.82031H12.3862L12.3489 17.6562Z" fill="black"/>
<path d="M2.5022 8.82812C2.5022 9.15176 2.77761 9.41406 3.11743 9.41406H10.5421C10.8819 9.41406 11.1575 9.15176 11.1575 8.82812C11.1575 8.50449 10.8819 8.24219 10.5421 8.24219H3.11743C2.77761 8.24219 2.5022 8.50449 2.5022 8.82812Z" fill="black"/>
<path d="M10.5421 10.5859H3.11743C2.77761 10.5859 2.5022 10.8482 2.5022 11.1719C2.5022 11.4955 2.77761 11.7578 3.11743 11.7578H10.5421C10.8819 11.7578 11.1575 11.4955 11.1575 11.1719C11.1575 10.8482 10.8819 10.5859 10.5421 10.5859Z" fill="black"/>
<path d="M10.5421 12.9297H3.11743C2.77761 12.9297 2.5022 13.192 2.5022 13.5156C2.5022 13.8393 2.77761 14.1016 3.11743 14.1016H10.5421C10.8819 14.1016 11.1575 13.8393 11.1575 13.5156C11.1575 13.192 10.8819 12.9297 10.5421 12.9297Z" fill="black"/>
<path d="M10.5421 15.2734H3.11743C2.77761 15.2734 2.5022 15.5357 2.5022 15.8594C2.5022 16.183 2.77761 16.4453 3.11743 16.4453H10.5421C10.8819 16.4453 11.1575 16.183 11.1575 15.8594C11.1575 15.5357 10.8819 15.2734 10.5421 15.2734Z" fill="black"/>
<path d="M17.923 1.17188C16.2266 1.17188 14.8465 2.48611 14.8465 4.10156V14.7266C14.8465 14.9712 14.7395 14.7511 17.4111 18.5672C17.6539 18.914 18.1912 18.9154 18.4351 18.5672C21.0976 14.7639 20.9995 14.9736 20.9995 14.7266V4.10156C20.9995 2.48611 19.6194 1.17188 17.923 1.17188ZM19.7689 14.1406H18.5384V5.85937H19.7689V14.1406ZM16.0772 14.1406V5.85937H17.3078V14.1406H16.0772ZM17.923 2.34375C18.9409 2.34375 19.7689 3.13232 19.7689 4.10156V4.6875H16.0772V4.10156C16.0772 3.13232 16.9052 2.34375 17.923 2.34375ZM17.923 17.1858L16.6115 15.3125H19.2346L17.923 17.1858Z" fill="black"/>
</svg>
