<svg width="25" height="25" viewBox="0 0 25 25" fill="none" xmlns="http://www.w3.org/2000/svg">
<g clip-path="url(#clip0)">
<path d="M23.484 10.8166C23.4247 10.516 23.5258 10.6825 20.5626 7.71524V3.62054C20.5626 3.21523 20.2345 2.8866 19.8301 2.8866H15.7404L13.0236 0.165953C12.7377 -0.12034 12.2742 -0.12034 11.9881 0.165953L9.27124 2.8866H5.1817C4.77715 2.8866 4.44927 3.21523 4.44927 3.62054V7.71524C1.53465 10.6341 1.51367 10.5541 1.51367 10.9591V24.2174C1.51367 24.6224 1.84174 24.9512 2.24609 24.9512H22.7655C23.1699 24.9512 23.498 24.6226 23.498 24.2174C23.498 10.0319 23.5048 10.9224 23.484 10.8166ZM21.5693 10.7985L20.5626 11.3745V9.79025L21.5693 10.7985ZM12.5059 1.72254L13.6683 2.8866H11.3434L12.5059 1.72254ZM19.0977 4.3543V12.2128L12.5059 15.9847L5.91412 12.2128V4.3543H19.0977ZM4.44927 11.3745L3.44238 10.7985L4.44927 9.79025V11.3745ZM2.97852 23.4835V12.2233L12.1426 17.4671C12.3676 17.5959 12.644 17.5959 12.8691 17.4671L22.0331 12.2233V23.4835H2.97852Z" fill="black"/>
<path d="M8.11133 7.28967H16.9004C17.3048 7.28967 17.6328 6.96122 17.6328 6.55591C17.6328 6.1506 17.3048 5.82196 16.9004 5.82196H8.11133C7.70678 5.82196 7.37891 6.1506 7.37891 6.55591C7.37891 6.96122 7.70678 7.28967 8.11133 7.28967Z" fill="black"/>
<path d="M8.11133 10.2252H16.9004C17.3048 10.2252 17.6328 9.89671 17.6328 9.4914C17.6328 9.08608 17.3048 8.75745 16.9004 8.75745H8.11133C7.70678 8.75745 7.37891 9.08608 7.37891 9.4914C7.37891 9.89671 7.70678 10.2252 8.11133 10.2252Z" fill="black"/>
<path d="M13.9707 11.7418H11.041C10.6365 11.7418 10.3086 12.0703 10.3086 12.4756C10.3086 12.8809 10.6365 13.2095 11.041 13.2095H13.9707C14.3751 13.2095 14.7031 12.8809 14.7031 12.4756C14.7031 12.0703 14.3753 11.7418 13.9707 11.7418Z" fill="black"/>
</g>
<defs>
<clipPath id="clip0">
<rect width="25" height="25" fill="white"/>
</clipPath>
</defs>
</svg>
