<svg width="160" height="123" viewBox="0 0 160 123" fill="none" xmlns="http://www.w3.org/2000/svg">
<g filter="url(#filter0_d)">
<path d="M149.903 0.670532H10.0974C7.28223 0.670532 5 2.98391 5 5.83748V82.8625C5 85.716 7.28223 88.0294 10.0974 88.0294H149.903C152.718 88.0294 155 85.716 155 82.8625V5.83748C155 2.98391 152.718 0.670532 149.903 0.670532Z" fill="white"/>
<path d="M109.128 103.922H91.8226V96.9935H68.1776V103.922H50.872C48.4301 103.922 46.4502 105.929 46.4502 108.404C46.4502 110.88 48.4298 112.886 50.872 112.886H109.128C111.57 112.886 113.55 110.88 113.55 108.404C113.55 105.929 111.57 103.922 109.128 103.922Z" fill="white"/>
</g>
<defs>
<filter id="filter0_d" x="0" y="0.670532" width="160" height="122.216" filterUnits="userSpaceOnUse" color-interpolation-filters="sRGB">
<feFlood flood-opacity="0" result="BackgroundImageFix"/>
<feColorMatrix in="SourceAlpha" type="matrix" values="0 0 0 0 0 0 0 0 0 0 0 0 0 0 0 0 0 0 127 0" result="hardAlpha"/>
<feOffset dy="5"/>
<feGaussianBlur stdDeviation="2.5"/>
<feColorMatrix type="matrix" values="0 0 0 0 0 0 0 0 0 0 0 0 0 0 0 0 0 0 0.25 0"/>
<feBlend mode="normal" in2="BackgroundImageFix" result="effect1_dropShadow"/>
<feBlend mode="normal" in="SourceGraphic" in2="effect1_dropShadow" result="shape"/>
</filter>
</defs>
</svg>
