<svg width="25" height="25" viewBox="0 0 25 25" fill="none" xmlns="http://www.w3.org/2000/svg">
<g clip-path="url(#clip0)">
<path d="M22.9807 3.55105C21.6716 2.24195 19.9385 1.52646 18.0888 1.52646C16.2391 1.52646 14.5008 2.24725 13.1917 3.55635L12.508 4.24004L11.8137 3.54575C10.5046 2.23665 8.76088 1.51056 6.91119 1.51056C5.0668 1.51056 3.32841 2.23135 2.02462 3.53515C0.715525 4.84424 -0.00527095 6.58263 2.90212e-05 8.43232C2.90212e-05 10.282 0.726125 12.0151 2.03522 13.3242L11.9886 23.2775C12.1264 23.4153 12.3119 23.4895 12.4921 23.4895C12.6723 23.4895 12.8578 23.4206 12.9956 23.2828L22.9701 13.3454C24.2792 12.0363 25 10.2979 25 8.44822C25.0053 6.59853 24.2898 4.86014 22.9807 3.55105ZM21.9631 12.3331L12.4921 21.767L3.04221 12.3172C2.00342 11.2784 1.43102 9.90041 1.43102 8.43232C1.43102 6.96423 1.99812 5.58623 3.03691 4.55274C4.07041 3.51925 5.4484 2.94685 6.91119 2.94685C8.37928 2.94685 9.76258 3.51925 10.8014 4.55804L11.9992 5.75583C12.2801 6.03673 12.7306 6.03673 13.0115 5.75583L14.1987 4.56864C15.2374 3.52985 16.6207 2.95745 18.0835 2.95745C19.5463 2.95745 20.9243 3.52985 21.9631 4.56334C23.0019 5.60213 23.569 6.98013 23.569 8.44822C23.5743 9.91631 23.0019 11.2943 21.9631 12.3331Z" fill="black"/>
</g>
<defs>
<clipPath id="clip0">
<rect width="25" height="25" fill="white"/>
</clipPath>
</defs>
</svg>
