<svg width="160" height="150" viewBox="0 0 160 150" fill="none" xmlns="http://www.w3.org/2000/svg">
<g clip-path="url(#clip0)" filter="url(#filter0_d)">
<path d="M80 39.4111L26.5033 83.5136C26.5033 83.5759 26.4876 83.6675 26.4564 83.7923C26.4257 83.9161 26.4094 84.006 26.4094 84.0699V128.728C26.4094 130.341 26.9989 131.738 28.1776 132.915C29.356 134.092 30.7514 134.685 32.3642 134.685H68.0899V98.9569H91.9105V134.686H127.636C129.248 134.686 130.646 134.095 131.822 132.915C133.001 131.739 133.593 130.341 133.593 128.728V84.0699C133.593 83.8222 133.559 83.6352 133.499 83.5136L80 39.4111Z" fill="white"/>
<path d="M153.965 73.4649L133.59 56.5317V18.5713C133.59 17.7035 133.311 16.9899 132.751 16.4313C132.196 15.8734 131.483 15.5945 130.613 15.5945H112.75C111.881 15.5945 111.167 15.8734 110.609 16.4313C110.051 16.9899 109.772 17.7039 109.772 18.5713V36.7139L87.0712 17.7332C85.0886 16.1204 82.7312 15.3142 80.0016 15.3142C77.2724 15.3142 74.9154 16.1204 72.9308 17.7332L6.03337 73.4649C5.41323 73.9603 5.07334 74.627 5.01012 75.4645C4.94723 76.3014 5.16393 77.0323 5.6609 77.6521L11.4292 84.5372C11.9262 85.0951 12.5766 85.4363 13.3832 85.5611C14.1278 85.6237 14.8724 85.406 15.6171 84.91L79.9997 31.2245L144.383 84.9097C144.88 85.3425 145.53 85.5585 146.337 85.5585H146.617C147.422 85.436 148.071 85.0925 148.57 84.5359L154.339 77.6518C154.835 77.0307 155.053 76.301 154.988 75.4632C154.925 74.628 154.584 73.9612 153.965 73.4649Z" fill="white"/>
</g>
<defs>
<filter id="filter0_d" x="0" y="0" width="160" height="160" filterUnits="userSpaceOnUse" color-interpolation-filters="sRGB">
<feFlood flood-opacity="0" result="BackgroundImageFix"/>
<feColorMatrix in="SourceAlpha" type="matrix" values="0 0 0 0 0 0 0 0 0 0 0 0 0 0 0 0 0 0 127 0" result="hardAlpha"/>
<feOffset dy="5"/>
<feGaussianBlur stdDeviation="2.5"/>
<feColorMatrix type="matrix" values="0 0 0 0 0 0 0 0 0 0 0 0 0 0 0 0 0 0 0.25 0"/>
<feBlend mode="normal" in2="BackgroundImageFix" result="effect1_dropShadow"/>
<feBlend mode="normal" in="SourceGraphic" in2="effect1_dropShadow" result="shape"/>
</filter>
<clipPath id="clip0">
<rect width="150" height="150" fill="white" transform="translate(5)"/>
</clipPath>
</defs>
</svg>
