<svg width="256" height="24" viewBox="0 0 256 24" fill="none" xmlns="http://www.w3.org/2000/svg">
<path d="M4.016 16.336H9.536V19H0.656V2.248H4.016V16.336ZM10.8076 12.304C10.8076 10.96 11.0716 9.768 11.5996 8.728C12.1436 7.688 12.8716 6.888 13.7836 6.328C14.7116 5.768 15.7436 5.488 16.8796 5.488C17.8716 5.488 18.7356 5.688 19.4716 6.088C20.2236 6.488 20.8236 6.992 21.2716 7.6V5.704H24.6556V19H21.2716V17.056C20.8396 17.68 20.2396 18.2 19.4716 18.616C18.7196 19.016 17.8476 19.216 16.8556 19.216C15.7356 19.216 14.7116 18.928 13.7836 18.352C12.8716 17.776 12.1436 16.968 11.5996 15.928C11.0716 14.872 10.8076 13.664 10.8076 12.304ZM21.2716 12.352C21.2716 11.536 21.1116 10.84 20.7916 10.264C20.4716 9.672 20.0396 9.224 19.4956 8.92C18.9516 8.6 18.3676 8.44 17.7436 8.44C17.1196 8.44 16.5436 8.592 16.0156 8.896C15.4876 9.2 15.0556 9.648 14.7196 10.24C14.3996 10.816 14.2396 11.504 14.2396 12.304C14.2396 13.104 14.3996 13.808 14.7196 14.416C15.0556 15.008 15.4876 15.464 16.0156 15.784C16.5596 16.104 17.1356 16.264 17.7436 16.264C18.3676 16.264 18.9516 16.112 19.4956 15.808C20.0396 15.488 20.4716 15.04 20.7916 14.464C21.1116 13.872 21.2716 13.168 21.2716 12.352ZM37.4413 10.408C38.3853 10.584 39.1613 11.056 39.7693 11.824C40.3773 12.592 40.6813 13.472 40.6813 14.464C40.6813 15.36 40.4573 16.152 40.0093 16.84C39.5773 17.512 38.9453 18.04 38.1133 18.424C37.2813 18.808 36.2973 19 35.1613 19H27.9373V2.248H34.8493C35.9853 2.248 36.9613 2.432 37.7773 2.8C38.6093 3.168 39.2333 3.68 39.6493 4.336C40.0813 4.992 40.2973 5.736 40.2973 6.568C40.2973 7.544 40.0333 8.36 39.5052 9.016C38.9933 9.672 38.3053 10.136 37.4413 10.408ZM31.2973 9.16H34.3693C35.1693 9.16 35.7853 8.984 36.2173 8.632C36.6493 8.264 36.8653 7.744 36.8653 7.072C36.8653 6.4 36.6493 5.88 36.2173 5.512C35.7853 5.144 35.1693 4.96 34.3693 4.96H31.2973V9.16ZM34.6813 16.264C35.4973 16.264 36.1293 16.072 36.5773 15.688C37.0413 15.304 37.2733 14.76 37.2733 14.056C37.2733 13.336 37.0333 12.776 36.5533 12.376C36.0733 11.96 35.4253 11.752 34.6093 11.752H31.2973V16.264H34.6813ZM49.2631 19.216C47.9831 19.216 46.8311 18.936 45.8071 18.376C44.7831 17.8 43.9751 16.992 43.3831 15.952C42.8071 14.912 42.5191 13.712 42.5191 12.352C42.5191 10.992 42.8151 9.792 43.4071 8.752C44.0151 7.712 44.8391 6.912 45.8791 6.352C46.9191 5.776 48.0791 5.488 49.3591 5.488C50.6391 5.488 51.7991 5.776 52.8391 6.352C53.8791 6.912 54.6951 7.712 55.2871 8.752C55.8951 9.792 56.1991 10.992 56.1991 12.352C56.1991 13.712 55.8871 14.912 55.2631 15.952C54.6551 16.992 53.8231 17.8 52.7671 18.376C51.7271 18.936 50.5591 19.216 49.2631 19.216ZM49.2631 16.288C49.8711 16.288 50.4391 16.144 50.9671 15.856C51.5111 15.552 51.9431 15.104 52.2631 14.512C52.5831 13.92 52.7431 13.2 52.7431 12.352C52.7431 11.088 52.4071 10.12 51.7351 9.448C51.0791 8.76 50.2711 8.416 49.3111 8.416C48.3511 8.416 47.5431 8.76 46.8871 9.448C46.2471 10.12 45.9271 11.088 45.9271 12.352C45.9271 13.616 46.2391 14.592 46.8631 15.28C47.5031 15.952 48.3031 16.288 49.2631 16.288ZM66.0318 5.512C67.6158 5.512 68.8958 6.016 69.8718 7.024C70.8478 8.016 71.3358 9.408 71.3358 11.2V19H67.9758V11.656C67.9758 10.6 67.7118 9.792 67.1838 9.232C66.6558 8.656 65.9358 8.368 65.0238 8.368C64.0958 8.368 63.3598 8.656 62.8158 9.232C62.2878 9.792 62.0238 10.6 62.0238 11.656V19H58.6638V5.704H62.0238V7.36C62.4718 6.784 63.0398 6.336 63.7278 6.016C64.4318 5.68 65.1998 5.512 66.0318 5.512ZM81.899 5.512C83.483 5.512 84.763 6.016 85.739 7.024C86.715 8.016 87.203 9.408 87.203 11.2V19H83.843V11.656C83.843 10.6 83.579 9.792 83.051 9.232C82.523 8.656 81.803 8.368 80.891 8.368C79.963 8.368 79.227 8.656 78.683 9.232C78.155 9.792 77.891 10.6 77.891 11.656V19H74.531V5.704H77.891V7.36C78.339 6.784 78.907 6.336 79.595 6.016C80.299 5.68 81.067 5.512 81.899 5.512ZM102.758 12.064C102.758 12.544 102.726 12.976 102.662 13.36H92.9422C93.0222 14.32 93.3582 15.072 93.9502 15.616C94.5422 16.16 95.2702 16.432 96.1342 16.432C97.3822 16.432 98.2702 15.896 98.7982 14.824H102.422C102.038 16.104 101.302 17.16 100.214 17.992C99.1262 18.808 97.7902 19.216 96.2062 19.216C94.9262 19.216 93.7742 18.936 92.7502 18.376C91.7422 17.8 90.9502 16.992 90.3742 15.952C89.8142 14.912 89.5342 13.712 89.5342 12.352C89.5342 10.976 89.8142 9.768 90.3742 8.728C90.9342 7.688 91.7182 6.888 92.7262 6.328C93.7342 5.768 94.8942 5.488 96.2062 5.488C97.4702 5.488 98.5982 5.76 99.5902 6.304C100.598 6.848 101.374 7.624 101.918 8.632C102.478 9.624 102.758 10.768 102.758 12.064ZM99.2782 11.104C99.2622 10.24 98.9502 9.552 98.3422 9.04C97.7342 8.512 96.9902 8.248 96.1102 8.248C95.2782 8.248 94.5742 8.504 93.9982 9.016C93.4382 9.512 93.0942 10.208 92.9662 11.104H99.2782ZM117.427 7.432C117.427 8.328 117.211 9.168 116.779 9.952C116.363 10.736 115.699 11.368 114.787 11.848C113.891 12.328 112.755 12.568 111.379 12.568H108.571V19H105.211V2.248H111.379C112.675 2.248 113.779 2.472 114.691 2.92C115.603 3.368 116.283 3.984 116.731 4.768C117.195 5.552 117.427 6.44 117.427 7.432ZM111.235 9.856C112.163 9.856 112.851 9.648 113.299 9.232C113.747 8.8 113.971 8.2 113.971 7.432C113.971 5.8 113.059 4.984 111.235 4.984H108.571V9.856H111.235ZM123.172 1.24V19H119.812V1.24H123.172ZM125.628 12.304C125.628 10.96 125.892 9.768 126.42 8.728C126.964 7.688 127.692 6.888 128.604 6.328C129.532 5.768 130.564 5.488 131.7 5.488C132.692 5.488 133.556 5.688 134.292 6.088C135.044 6.488 135.644 6.992 136.092 7.6V5.704H139.476V19H136.092V17.056C135.66 17.68 135.06 18.2 134.292 18.616C133.54 19.016 132.668 19.216 131.676 19.216C130.556 19.216 129.532 18.928 128.604 18.352C127.692 17.776 126.964 16.968 126.42 15.928C125.892 14.872 125.628 13.664 125.628 12.304ZM136.092 12.352C136.092 11.536 135.932 10.84 135.612 10.264C135.292 9.672 134.86 9.224 134.316 8.92C133.772 8.6 133.188 8.44 132.564 8.44C131.94 8.44 131.364 8.592 130.836 8.896C130.308 9.2 129.876 9.648 129.54 10.24C129.22 10.816 129.06 11.504 129.06 12.304C129.06 13.104 129.22 13.808 129.54 14.416C129.876 15.008 130.308 15.464 130.836 15.784C131.38 16.104 131.956 16.264 132.564 16.264C133.188 16.264 133.772 16.112 134.316 15.808C134.86 15.488 135.292 15.04 135.612 14.464C135.932 13.872 136.092 13.168 136.092 12.352ZM146.67 8.464V14.896C146.67 15.344 146.774 15.672 146.982 15.88C147.206 16.072 147.574 16.168 148.086 16.168H149.646V19H147.534C144.702 19 143.286 17.624 143.286 14.872V8.464H141.702V5.704H143.286V2.416H146.67V5.704H149.646V8.464H146.67ZM164.422 12.064C164.422 12.544 164.39 12.976 164.326 13.36H154.606C154.686 14.32 155.022 15.072 155.614 15.616C156.206 16.16 156.934 16.432 157.798 16.432C159.046 16.432 159.934 15.896 160.462 14.824H164.086C163.702 16.104 162.966 17.16 161.878 17.992C160.79 18.808 159.454 19.216 157.87 19.216C156.59 19.216 155.438 18.936 154.414 18.376C153.406 17.8 152.614 16.992 152.038 15.952C151.478 14.912 151.198 13.712 151.198 12.352C151.198 10.976 151.478 9.768 152.038 8.728C152.598 7.688 153.382 6.888 154.39 6.328C155.398 5.768 156.558 5.488 157.87 5.488C159.134 5.488 160.262 5.76 161.254 6.304C162.262 6.848 163.038 7.624 163.582 8.632C164.142 9.624 164.422 10.768 164.422 12.064ZM160.942 11.104C160.926 10.24 160.614 9.552 160.006 9.04C159.398 8.512 158.654 8.248 157.774 8.248C156.942 8.248 156.238 8.504 155.662 9.016C155.102 9.512 154.758 10.208 154.63 11.104H160.942ZM172.971 8.464H170.643V19H167.235V8.464H165.723V5.704H167.235V5.032C167.235 3.4 167.699 2.2 168.627 1.432C169.555 0.663999 170.955 0.303999 172.827 0.352V3.184C172.011 3.168 171.443 3.304 171.123 3.592C170.803 3.88 170.643 4.4 170.643 5.152V5.704H172.971V8.464ZM181.052 19.216C179.772 19.216 178.62 18.936 177.596 18.376C176.572 17.8 175.764 16.992 175.172 15.952C174.596 14.912 174.308 13.712 174.308 12.352C174.308 10.992 174.604 9.792 175.196 8.752C175.804 7.712 176.628 6.912 177.668 6.352C178.708 5.776 179.868 5.488 181.148 5.488C182.428 5.488 183.588 5.776 184.628 6.352C185.668 6.912 186.484 7.712 187.076 8.752C187.684 9.792 187.988 10.992 187.988 12.352C187.988 13.712 187.676 14.912 187.052 15.952C186.444 16.992 185.612 17.8 184.556 18.376C183.516 18.936 182.348 19.216 181.052 19.216ZM181.052 16.288C181.66 16.288 182.228 16.144 182.756 15.856C183.3 15.552 183.732 15.104 184.052 14.512C184.372 13.92 184.532 13.2 184.532 12.352C184.532 11.088 184.196 10.12 183.524 9.448C182.868 8.76 182.06 8.416 181.1 8.416C180.14 8.416 179.332 8.76 178.676 9.448C178.036 10.12 177.716 11.088 177.716 12.352C177.716 13.616 178.028 14.592 178.652 15.28C179.292 15.952 180.092 16.288 181.052 16.288ZM193.813 7.768C194.245 7.064 194.805 6.512 195.493 6.112C196.197 5.712 196.997 5.512 197.893 5.512V9.04H197.005C195.949 9.04 195.149 9.288 194.605 9.784C194.077 10.28 193.813 11.144 193.813 12.376V19H190.453V5.704H193.813V7.768ZM216.668 5.512C218.3 5.512 219.612 6.016 220.604 7.024C221.612 8.016 222.116 9.408 222.116 11.2V19H218.756V11.656C218.756 10.616 218.492 9.824 217.964 9.28C217.436 8.72 216.716 8.44 215.804 8.44C214.892 8.44 214.164 8.72 213.62 9.28C213.092 9.824 212.828 10.616 212.828 11.656V19H209.468V11.656C209.468 10.616 209.204 9.824 208.676 9.28C208.148 8.72 207.428 8.44 206.516 8.44C205.588 8.44 204.852 8.72 204.308 9.28C203.78 9.824 203.516 10.616 203.516 11.656V19H200.156V5.704H203.516V7.312C203.948 6.752 204.5 6.312 205.172 5.992C205.86 5.672 206.612 5.512 207.428 5.512C208.468 5.512 209.396 5.736 210.212 6.184C211.028 6.616 211.66 7.24 212.108 8.056C212.54 7.288 213.164 6.672 213.98 6.208C214.812 5.744 215.708 5.512 216.668 5.512ZM237.664 12.064C237.664 12.544 237.632 12.976 237.568 13.36H227.848C227.928 14.32 228.264 15.072 228.856 15.616C229.448 16.16 230.176 16.432 231.04 16.432C232.288 16.432 233.176 15.896 233.704 14.824H237.328C236.944 16.104 236.208 17.16 235.12 17.992C234.032 18.808 232.696 19.216 231.112 19.216C229.832 19.216 228.68 18.936 227.656 18.376C226.648 17.8 225.856 16.992 225.28 15.952C224.72 14.912 224.44 13.712 224.44 12.352C224.44 10.976 224.72 9.768 225.28 8.728C225.84 7.688 226.624 6.888 227.632 6.328C228.64 5.768 229.8 5.488 231.112 5.488C232.376 5.488 233.504 5.76 234.496 6.304C235.504 6.848 236.28 7.624 236.824 8.632C237.384 9.624 237.664 10.768 237.664 12.064ZM234.184 11.104C234.168 10.24 233.856 9.552 233.248 9.04C232.64 8.512 231.896 8.248 231.016 8.248C230.184 8.248 229.48 8.504 228.904 9.016C228.344 9.512 228 10.208 227.872 11.104H234.184ZM255.117 19.96V23.152H241.029V19.96H255.117Z" fill="#275FA0"/>
</svg>
