<svg width="22" height="22" viewBox="0 0 22 22" fill="none" xmlns="http://www.w3.org/2000/svg">
<g clip-path="url(#clip0)">
<path d="M9.53034 0C4.27545 0 0 4.27545 0 9.53034C0 14.7855 4.27545 19.0607 9.53034 19.0607C14.7855 19.0607 19.0607 14.7855 19.0607 9.53034C19.0607 4.27545 14.7855 0 9.53034 0ZM9.53034 17.3013C5.2455 17.3013 1.75945 13.8152 1.75945 9.53038C1.75945 5.24554 5.2455 1.75945 9.53034 1.75945C13.8152 1.75945 17.3012 5.2455 17.3012 9.53034C17.3012 13.8152 13.8152 17.3013 9.53034 17.3013Z" fill="black"/>
<path d="M21.3834 20.1395L16.3396 15.0958C15.9959 14.7521 15.4393 14.7521 15.0957 15.0958C14.752 15.4392 14.752 15.9963 15.0957 16.3397L20.1394 21.3835C20.3112 21.5553 20.5362 21.6412 20.7614 21.6412C20.9863 21.6412 21.2115 21.5553 21.3834 21.3835C21.727 21.0401 21.727 20.4829 21.3834 20.1395Z" fill="black"/>
</g>
<defs>
<clipPath id="clip0">
<rect width="21.6412" height="21.6412" fill="white"/>
</clipPath>
</defs>
</svg>
