<svg width="160" height="150" viewBox="0 0 160 150" fill="none" xmlns="http://www.w3.org/2000/svg">
<g clip-path="url(#clip0)" filter="url(#filter0_d)">
<path d="M31.1829 79.0507C24.9324 79.0507 19.864 84.1175 19.864 90.3696C19.864 90.8516 19.9034 91.326 19.964 91.7913C20.6658 97.3704 25.4144 101.685 31.1814 101.685C37.1046 101.685 41.9608 97.1324 42.4534 91.3335C42.4791 91.0168 42.5004 90.6939 42.5004 90.3681C42.5019 84.1175 37.435 79.0507 31.1829 79.0507ZM25.5174 86.1045L27.8242 88.4129C27.6454 88.7206 27.5044 89.0525 27.4135 89.4071H24.1609C24.3276 88.1764 24.799 87.0518 25.5174 86.1045ZM24.1457 91.3669H27.4241C27.5166 91.7155 27.653 92.0459 27.8349 92.349L25.522 94.6604C24.8051 93.7207 24.3231 92.5961 24.1457 91.3669ZM30.2038 97.4007C28.9777 97.2294 27.8637 96.749 26.9209 96.0381L29.2217 93.7359C29.5248 93.9132 29.8567 94.0435 30.2038 94.1345V97.4007ZM30.2038 86.6047C29.8476 86.6987 29.5142 86.8381 29.2035 87.0215L26.8982 84.7162C27.8455 83.9963 28.9701 83.5203 30.2038 83.3491V86.6047ZM32.1636 83.346C33.3973 83.5173 34.5235 83.9963 35.4692 84.7147L33.1654 87.02C32.8562 86.8366 32.5198 86.6971 32.1651 86.6032L32.1636 83.346ZM32.1636 97.3977V94.136C32.5122 94.0435 32.8411 93.9147 33.1442 93.7359L35.4465 96.0381C34.5037 96.749 33.3882 97.2264 32.1636 97.3977ZM36.85 94.671L34.5295 92.3475C34.7114 92.0429 34.8584 91.717 34.9509 91.3684H38.2035C38.0307 92.5931 37.5684 93.7268 36.85 94.671ZM34.9554 89.4071C34.863 89.0525 34.7235 88.7206 34.5447 88.4129L36.8545 86.1045C37.5684 87.0518 38.0398 88.1764 38.2095 89.4087H34.9554V89.4071Z" fill="white"/>
<path d="M125.167 79.0507C118.917 79.0507 113.849 84.1175 113.849 90.3696C113.849 90.8516 113.888 91.326 113.949 91.7913C114.65 97.3704 119.399 101.685 125.164 101.685C131.088 101.685 135.944 97.1324 136.438 91.3335C136.464 91.0168 136.485 90.6939 136.485 90.3681C136.488 84.1175 131.42 79.0507 125.167 79.0507ZM119.502 86.1045L121.807 88.4129C121.628 88.7206 121.487 89.0525 121.396 89.4071H118.144C118.312 88.1764 118.783 87.0518 119.502 86.1045ZM118.132 91.3669H121.41C121.503 91.7155 121.639 92.0459 121.821 92.349L119.509 94.6604C118.79 93.7207 118.306 92.5961 118.132 91.3669ZM124.188 97.4007C122.962 97.2294 121.848 96.749 120.905 96.0381L123.206 93.7359C123.509 93.9132 123.841 94.0435 124.188 94.1345V97.4007ZM124.188 86.6047C123.832 86.6987 123.499 86.8381 123.188 87.0215L120.883 84.7162C121.83 83.9963 122.953 83.5203 124.188 83.3491V86.6047ZM126.15 83.346C127.383 83.5173 128.509 83.9963 129.455 84.7147L127.15 87.02C126.841 86.8366 126.504 86.6941 126.15 86.6032V83.346ZM126.15 97.3977V94.136C126.498 94.0435 126.827 93.9147 127.13 93.7359L129.432 96.0381C128.49 96.749 127.373 97.2264 126.15 97.3977ZM130.834 94.671L128.514 92.3505C128.696 92.0444 128.844 91.72 128.935 91.3699H132.188C132.015 92.5931 131.554 93.7268 130.834 94.671ZM128.94 89.4071C128.847 89.0525 128.71 88.7206 128.529 88.4129L130.838 86.1045C131.553 87.0518 132.023 88.1764 132.194 89.4087H128.94V89.4071Z" fill="white"/>
<path d="M152.346 73.1911V64.8156C152.346 63.4682 151.367 62.3269 150.036 62.1192C146.843 61.6191 141.182 60.6748 138.639 59.8912C134.992 58.7666 120.902 52.801 116.023 51.6809C111.143 50.5608 89.1387 44.5801 68.0635 51.8855C64.4971 53.1208 48.4539 60.79 39.0205 64.7777C36.2423 64.8383 8.7437 70.5705 7.27957 74.4991C5.81545 78.4292 5.35621 80.3359 5.08642 81.3332C4.81663 82.3305 5.08642 87.1033 7.12952 90.4272C9.21204 91.6048 13.221 92.396 17.8558 92.9265C17.8028 92.643 17.7452 92.3642 17.7088 92.0777C17.6285 91.4654 17.5906 90.9061 17.5906 90.3726C17.5906 82.8777 23.6866 76.7787 31.183 76.7787C38.6794 76.7787 44.7754 82.8761 44.7754 90.3726C44.7754 90.7576 44.7496 91.1395 44.7208 91.5154C44.6496 92.3566 44.498 93.1735 44.2783 93.9601C44.2889 93.9601 44.3146 93.9601 44.3146 93.9601L111.786 92.6021C111.755 92.4278 111.716 92.255 111.693 92.0777C111.613 91.4684 111.575 90.9076 111.575 90.3726C111.575 82.8777 117.671 76.7802 125.167 76.7802C132.664 76.7802 138.761 82.8761 138.761 90.3726C138.761 90.4014 138.758 90.4256 138.757 90.4529L139.045 90.4287L150.58 88.2567C150.58 88.2567 154.999 85.9044 154.999 79.4326C155 75.116 152.346 73.1911 152.346 73.1911ZM85.4162 65.2506L60.2184 66.0221C60.6822 62.2466 58.4466 61.3993 58.4466 61.3993C68.4636 52.3069 88.6522 51.9992 88.6522 51.9992L85.4162 65.2506ZM113.695 64.0972L90.7332 64.8686L92.8141 52.0007C104.682 51.8461 111.461 54.4652 111.461 54.4652L114.852 59.9367L113.695 64.0972ZM126.641 64.0184H120.243L113.847 55.2351C118.645 57.1449 122.486 59.0273 124.773 60.2171C126.162 60.9385 126.919 62.48 126.641 64.0184Z" fill="white"/>
</g>
<defs>
<filter id="filter0_d" x="0" y="0" width="160" height="160" filterUnits="userSpaceOnUse" color-interpolation-filters="sRGB">
<feFlood flood-opacity="0" result="BackgroundImageFix"/>
<feColorMatrix in="SourceAlpha" type="matrix" values="0 0 0 0 0 0 0 0 0 0 0 0 0 0 0 0 0 0 127 0" result="hardAlpha"/>
<feOffset dy="5"/>
<feGaussianBlur stdDeviation="2.5"/>
<feColorMatrix type="matrix" values="0 0 0 0 0 0 0 0 0 0 0 0 0 0 0 0 0 0 0.25 0"/>
<feBlend mode="normal" in2="BackgroundImageFix" result="effect1_dropShadow"/>
<feBlend mode="normal" in="SourceGraphic" in2="effect1_dropShadow" result="shape"/>
</filter>
<clipPath id="clip0">
<rect width="150" height="150" fill="white" transform="translate(5)"/>
</clipPath>
</defs>
</svg>
